<?xml version="1.0" standalone="no"?>
<!DOCTYPE svg PUBLIC "-//W3C//DTD SVG 20010904//EN"
 "http://www.w3.org/TR/2001/REC-SVG-20010904/DTD/svg10.dtd">
<svg version="1.0" xmlns="http://www.w3.org/2000/svg"
 width="1024.000000pt" height="1024.000000pt" viewBox="0 0 1024.000000 1024.000000"
 preserveAspectRatio="xMidYMid meet">

<g transform="translate(0.000000,1024.000000) scale(0.100000,-0.100000)"
fill="#000000" stroke="none">
<path d="M5117 8954 c-4 -4 -7 -16 -7 -26 0 -29 -56 -183 -92 -251 -45 -87
-154 -193 -244 -239 l-72 -36 69 -47 c112 -76 159 -149 167 -257 l5 -68 -789
0 -789 0 -62 -88 c-34 -48 -150 -208 -257 -357 -107 -148 -193 -271 -192 -273
7 -6 438 189 867 392 l77 36 571 0 571 0 0 -280 0 -280 -1170 0 c-643 0 -1170
-3 -1170 -6 0 -9 175 -209 493 -561 l290 -323 235 0 235 0 -53 58 c-30 31
-148 155 -263 275 l-209 217 403 -2 404 -3 0 -323 0 -323 -381 1 -380 0 -232
-206 c-128 -113 -232 -209 -232 -213 0 -12 499 -601 509 -601 3 0 32 40 64 89
32 49 66 96 76 105 12 11 103 31 277 61 142 25 269 48 282 51 l22 6 0 -345 c0
-297 3 -361 20 -460 27 -160 67 -278 157 -457 42 -85 79 -158 81 -163 2 -4
-34 21 -80 56 -139 105 -288 182 -536 277 -41 16 -77 28 -79 27 -5 -6 127
-184 189 -255 149 -168 308 -288 688 -517 80 -48 160 -97 179 -108 33 -20 34
-20 26 -1 -23 54 -171 465 -206 574 -82 251 -82 245 -86 878 -4 487 -2 562 10
562 8 0 109 38 223 84 l209 84 3 -687 3 -686 89 -63 90 -63 84 63 85 63 1 826
c0 454 3 1016 7 1248 l6 421 226 -2 226 -3 0 -1190 c0 -943 -3 -1208 -13
-1275 -21 -132 -73 -320 -170 -613 -48 -147 -86 -267 -84 -267 8 0 262 157
397 245 293 192 453 343 604 574 33 51 61 97 61 101 0 10 -305 -125 -407 -180
-81 -43 -221 -139 -243 -165 -28 -34 -28 -12 1 38 48 82 108 214 141 311 57
171 60 198 65 629 l5 399 332 -4 c297 -3 335 -5 359 -21 15 -9 52 -53 83 -98
31 -44 58 -79 59 -77 2 2 72 93 157 203 84 110 175 228 202 262 l48 61 -74 70
c-40 38 -143 133 -228 211 l-155 141 -397 0 -398 0 0 325 0 325 431 0 c423 0
430 0 417 -19 -8 -11 -121 -135 -251 -275 l-238 -256 238 0 238 1 155 176
c419 476 610 697 610 704 0 5 -533 9 -1200 9 l-1200 0 0 280 0 280 569 0 568
0 84 -39 c240 -111 596 -274 689 -316 58 -26 118 -53 134 -61 41 -20 43 -11 8
33 -16 21 -131 181 -257 356 l-227 317 -790 0 -789 0 7 63 c3 34 14 81 24 104
25 56 91 126 162 170 l58 36 -66 33 c-161 81 -265 218 -324 429 -12 44 -23 84
-24 88 -1 5 -5 5 -9 1z m-177 -2523 c0 -315 -3 -411 -12 -418 -12 -8 -98 -46
-360 -159 l-78 -33 0 509 0 510 225 0 225 0 0 -409z m-802 -603 l-3 -73 -95
-12 c-52 -6 -207 -23 -345 -37 -137 -15 -272 -29 -300 -32 l-50 -6 55 58 c31
33 78 85 105 117 l49 57 293 0 294 0 -3 -72z m2613 49 c34 -23 81 -98 94 -149
l7 -28 -376 0 -376 0 0 100 0 100 309 0 c304 0 308 0 342 -23z"/>
<path d="M2830 4768 c157 -150 135 -140 329 -149 162 -8 212 -17 350 -67 12
-4 10 1 -5 19 -11 13 -50 67 -86 120 -37 52 -85 112 -107 132 l-41 37 -268 0
-267 -1 95 -91z"/>
<path d="M6928 4833 c-29 -31 -189 -275 -184 -280 2 -2 46 10 99 27 81 26 116
31 238 36 110 5 153 11 184 25 22 10 85 64 140 119 l100 100 -276 0 -275 0
-26 -27z"/>
<path d="M5365 4173 c-115 -29 -221 -52 -235 -53 -14 0 -121 23 -238 51 -117
29 -215 50 -217 47 -3 -3 68 -126 158 -274 237 -389 282 -459 293 -457 10 2
31 35 279 443 98 160 176 292 174 293 -2 1 -98 -21 -214 -50z"/>
<path d="M3064 3045 c-120 -26 -213 -95 -261 -194 -25 -49 -28 -67 -28 -151 0
-86 3 -100 29 -148 55 -99 141 -147 348 -192 150 -33 193 -52 214 -91 18 -35
18 -53 0 -88 -23 -44 -86 -66 -186 -66 -96 1 -166 26 -232 84 -20 17 -40 31
-46 31 -6 0 -47 -39 -92 -87 l-82 -88 34 -29 c139 -119 309 -169 500 -147 246
29 388 161 388 362 0 91 -26 154 -90 219 -66 67 -133 97 -307 136 -125 28
-187 53 -197 79 -15 39 -6 77 25 106 37 34 80 44 165 36 70 -7 139 -33 192
-73 l34 -26 78 83 c44 46 79 87 80 91 0 12 -124 96 -176 119 -104 45 -272 60
-390 34z"/>
<path d="M1776 2918 c-70 -174 -353 -870 -387 -950 l-28 -68 153 0 153 0 44
118 45 117 220 3 221 2 44 -120 44 -120 154 0 c119 0 152 3 148 13 -22 53
-232 558 -334 802 -69 165 -127 306 -130 313 -4 9 -44 12 -152 12 l-146 0 -49
-122z m271 -370 c35 -90 67 -170 69 -178 4 -13 -15 -15 -136 -15 -121 0 -140
2 -136 15 17 57 132 348 135 344 2 -2 33 -77 68 -166z"/>
<path d="M3882 2648 c4 -368 5 -397 25 -448 84 -226 233 -324 488 -323 269 1
446 127 500 355 12 50 15 142 15 436 l0 372 -145 0 -144 0 -3 -387 -3 -388
-27 -46 c-37 -63 -105 -99 -187 -99 -99 0 -161 35 -204 115 -21 39 -22 53 -25
423 l-3 382 -145 0 -145 0 3 -392z"/>
<path d="M5190 2471 l0 -571 140 0 140 0 2 260 3 260 203 -260 203 -260 160 0
c125 0 159 3 153 13 -4 6 -76 98 -161 204 -84 106 -153 196 -153 200 0 4 20
16 45 26 67 28 130 89 165 161 27 54 32 76 33 142 2 181 -85 306 -258 369 -44
16 -90 19 -362 23 l-313 4 0 -571z m582 288 c92 -47 90 -185 -4 -236 -26 -13
-63 -18 -165 -21 l-133 -4 0 140 c0 122 2 141 16 144 9 2 69 1 133 0 89 -3
124 -8 153 -23z"/>
<path d="M6823 3017 c-6 -14 -109 -262 -228 -553 -120 -291 -222 -537 -227
-546 -8 -17 2 -18 145 -18 l154 0 44 118 45 117 219 0 220 0 45 -117 45 -118
154 0 c119 0 152 3 148 13 -3 6 -41 98 -85 202 -113 269 -337 811 -360 870
l-20 50 -144 3 c-144 3 -145 2 -155 -21z m222 -472 c36 -93 67 -174 68 -178 1
-5 -60 -10 -135 -10 -76 -1 -138 1 -138 5 0 4 29 81 65 171 36 91 65 170 65
177 0 24 8 7 75 -165z"/>
<path d="M7686 3028 c4 -7 90 -133 191 -279 100 -147 183 -272 183 -278 0 -7
-62 -101 -137 -211 -76 -110 -160 -232 -188 -272 -27 -40 -51 -76 -53 -80 -2
-4 68 -8 155 -8 l159 0 95 138 c53 75 109 156 124 180 l28 43 34 -48 c19 -26
75 -108 125 -180 l92 -133 163 0 164 0 -39 53 c-21 28 -114 161 -206 294
l-167 243 147 212 c81 117 167 241 192 276 l44 62 -164 0 -163 0 -114 -170
-114 -170 -114 170 -113 170 -166 0 c-129 0 -164 -3 -158 -12z"/>
</g>
</svg>
